<?xml version="1.0" encoding="UTF-8"?>
<svg width="42px" height="42px" viewBox="0 0 42 42" version="1.1" xmlns="http://www.w3.org/2000/svg" xmlns:xlink="http://www.w3.org/1999/xlink">
    <g stroke="none" stroke-width="1" fill="none" fill-rule="evenodd">
        <g fill="#D82B80" fill-rule="nonzero">
            <path d="M31.5,0 L10.5,0 C4.71517672,0 0,4.73356401 0,10.5051903 L0,31.4948097 C0,37.266436 4.71517672,42 10.5,42 L31.5,42 C37.2848233,42 42,37.266436 42,31.4948097 L42,10.5051903 C42,4.73356401 37.2629938,0 31.5,0 Z M18.7297297,8.71972318 C18.7297297,7.74394464 19.5155925,6.9550173 20.497921,6.9550173 L23.7723493,6.9550173 C24.7546778,6.9550173 25.5405405,7.74394464 25.5405405,8.71972318 L25.5405405,12 C25.5405405,12.9757785 24.7546778,13.7647059 23.7723493,13.7647059 L20.497921,13.7647059 C19.5155925,13.7647059 18.7297297,12.9757785 18.7297297,12 L18.7297297,8.71972318 Z M16.1538462,27.467128 C16.1538462,28.1314879 15.6081081,28.6712803 14.9313929,28.6712803 L12.6829522,28.6712803 C12.006237,28.6712803 11.460499,28.1314879 11.460499,27.467128 L11.460499,25.2249135 C11.460499,24.5605536 12.006237,24.0207612 12.6829522,24.0207612 L14.9313929,24.0207612 C15.6081081,24.0207612 16.1538462,24.5605536 16.1538462,25.2249135 L16.1538462,27.467128 Z M15.2806653,21.0726644 L11.5914761,21.0726644 C10.5,21.0726644 9.6049896,20.1799308 9.6049896,19.0795848 L9.6049896,15.384083 C9.6049896,14.283737 10.5,13.3910035 11.5914761,13.3910035 L15.2806653,13.3910035 C16.3721414,13.3910035 17.2671518,14.283737 17.2671518,15.384083 L17.2671518,19.0795848 C17.2671518,20.1799308 16.3939709,21.0726644 15.2806653,21.0726644 Z M22.4189189,34.3391003 C22.4189189,35.1280277 21.7858628,35.7716263 20.9781705,35.7716263 L18.3149688,35.7716263 C17.529106,35.7716263 16.8742204,35.1280277 16.8742204,34.3391003 L16.8742204,31.6816609 C16.8742204,30.8927336 17.5072765,30.2491349 18.3149688,30.2491349 L20.9781705,30.2491349 C21.7640333,30.2491349 22.4189189,30.8927336 22.4189189,31.6816609 L22.4189189,34.3391003 Z M24.7546778,27.716263 C23.3575884,28.4221453 21.2619543,28.1522491 20.0831601,27.1557093 C19.8648649,26.9688581 19.6683992,26.7404844 19.6247401,26.449827 C19.493763,25.7854671 20.1268191,25.2871972 20.7817048,25.5570934 C21.0218295,25.6401384 21.2401247,25.7854671 21.45842,25.9100346 C22.0696466,26.283737 22.7245322,26.4705882 23.466736,26.3460208 C23.8378378,26.283737 24.1652807,26.1591696 24.3835759,25.8269896 C24.6673597,25.3910035 24.5800416,24.8719723 24.1434511,24.4359862 C23.7941788,24.0622837 23.3357588,23.8131488 22.8991684,23.5847751 C22.3534304,23.3148789 21.8076923,23.0657439 21.2837838,22.7543253 C20.6725572,22.4221453 20.1923077,21.9653979 19.9303534,21.3217993 C19.3846154,19.9930796 19.8866944,18.6228374 21.1528067,17.9377163 C21.7422037,17.6055363 22.3752599,17.4809689 23.0519751,17.4602076 C23.968815,17.4809689 24.7983368,17.7093426 25.5405405,18.2698962 C25.7370062,18.4152249 25.8898129,18.6020761 26.02079,18.8096886 C26.1735967,19.0588235 26.1735967,19.349481 25.977131,19.5986159 C25.7806653,19.8477509 25.518711,19.9930796 25.2130977,19.9307958 C24.9074844,19.8685121 24.6237006,19.7647059 24.3617464,19.6193772 C23.8378378,19.3287197 23.2920998,19.1626298 22.6808732,19.2456747 C22.4844075,19.266436 22.2661123,19.3287197 22.0914761,19.432526 C21.502079,19.7647059 21.4365904,20.4913495 21.9168399,20.9896194 C22.1351351,21.1972318 22.3752599,21.384083 22.6372141,21.5294118 C23.2920998,21.8823529 23.9469854,22.2145329 24.6018711,22.567474 C25.1912682,22.8788927 25.6933472,23.2941176 26.02079,23.8961938 C26.7629938,25.3702422 26.2390852,26.9688581 24.7546778,27.716263 Z M28.2037422,26.8442907 L27.9199584,26.8442907 L27.9199584,28.0276817 C27.9199584,28.0899654 27.8762994,28.1314879 27.8108108,28.1314879 C27.7453222,28.1314879 27.7016632,28.0899654 27.7016632,28.0276817 L27.7016632,26.8442907 L27.4397089,26.8442907 C27.3742204,26.8442907 27.3305613,26.7820069 27.3305613,26.7197232 C27.3305613,26.6574394 27.3742204,26.5951557 27.4397089,26.5951557 L28.2255717,26.5951557 C28.2910603,26.5951557 28.3347193,26.6366782 28.3347193,26.7197232 C28.3128898,26.7820069 28.2474012,26.8442907 28.2037422,26.8442907 Z M29.8191268,28.0069204 C29.8191268,28.0692042 29.7754678,28.1107266 29.7099792,28.1107266 C29.6444906,28.1107266 29.6008316,28.0692042 29.6008316,28.0069204 L29.6008316,27.0726644 C29.535343,27.2387543 29.4698545,27.4878893 29.4043659,27.6747405 C29.2952183,28.0069204 29.2733888,28.0276817 29.2733888,28.0276817 C29.2515593,28.0899654 29.2079002,28.1107266 29.1642412,28.1107266 C29.0987526,28.1107266 29.0550936,28.0692042 29.0550936,28.0276817 L28.7276507,27.0726644 L28.7276507,28.0069204 C28.7276507,28.0692042 28.6839917,28.1107266 28.6185031,28.1107266 C28.5530146,28.1107266 28.5093555,28.0692042 28.5093555,28.0069204 L28.5093555,26.7612457 C28.5093555,26.6574394 28.5966736,26.5951557 28.6839917,26.5951557 C28.7494802,26.5951557 28.8149688,26.6574394 28.8586279,26.7197232 L29.1860707,27.6747405 L29.5135135,26.7197232 C29.535343,26.6366782 29.6008316,26.5951557 29.6881497,26.5951557 C29.7754678,26.5951557 29.8627859,26.6782007 29.8627859,26.7612457 L29.8191268,28.0069204 L29.8191268,28.0069204 Z M31.7401247,14.0968858 C31.7401247,14.6366782 31.3035343,15.0934256 30.7577963,15.0934256 L28.9022869,15.0934256 C28.3565489,15.0934256 27.8981289,14.6574394 27.8981289,14.0968858 L27.8981289,12.2491349 C27.8981289,11.7093426 28.3347193,11.2525952 28.9022869,11.2525952 L30.7359667,11.2525952 C31.2817048,11.2525952 31.7182952,11.6885813 31.7182952,12.2491349 L31.7182952,14.0968858 L31.7401247,14.0968858 Z" id="Shape"></path>
        </g>
    </g>
</svg>